# xmcd
#
# Track frame offsets: 
#        150
#        19053
#        41595
#        59076
#        74436
#        87611
#        106500
#        128152
#        142310
#        158772
#        176954
#        196734
#        218584
#        237464
#
# Disc length: 3299 seconds
#
# Revision: 0
# Processed by: cddbd v1.5.2PL0 Copyright (c) Steve Scherf et al.
# Submitted via: ExactAudioCopyFreeDBPlugin 1.0
#
DISCID=cf0ce10e
DTITLE=Various Artist - Country Faith Christmas
DYEAR=2015
DGENRE=Christmas
TTITLE0=Carrie Underwood - Do You Hear What I Hear
TTITLE1=Rascal Flatts - God Rest Ye Merry Gentlemen
TTITLE2=Martina McBride - Silent Night
TTITLE3=Hunter Hayes - Go Tell It On The Mountain
TTITLE4=Alan Jackson - Let It Be Christmas
TTITLE5=Sara Evans - O Come All Ye Faithful
TTITLE6=Gloriana - O Holy Night
TTITLE7=Trace Adkins - What Child Is This?
TTITLE8=Lonestar - Reason For The Season
TTITLE9=Dolly Parton - Joy To The World
TTITLE10=Clay Walker - Mary Did You Know
TTITLE11=Travis Tritt - I Heard The Bells On Christmas Day
TTITLE12=Brad Paisley - Born On Christmas Day
TTITLE13=Johnny Cash - Reading Of Luke 2:1-18
EXTD=
EXTT0=
EXTT1=
EXTT2=
EXTT3=
EXTT4=
EXTT5=
EXTT6=
EXTT7=
EXTT8=
EXTT9=
EXTT10=
EXTT11=
EXTT12=
EXTT13=
PLAYORDER=
